<svg width="250" height="250" viewBox="0 0 250 250" fill="none" xmlns="http://www.w3.org/2000/svg">
<path opacity="0.7" d="M33.958 83.3914C33.958 83.3914 20.0382 119.311 39.5999 155.48C59.1616 191.65 99.4532 210.757 131.702 227.096C163.95 243.434 197.436 235.477 213.348 208.717C229.26 181.956 207.437 162.854 207.407 124.694C207.377 86.5344 213.124 76.4319 192.429 44.1939C171.734 11.9558 121.002 4.81678 82.6376 28.7284C44.2731 52.64 33.958 83.3914 33.958 83.3914Z" fill="white"/>
<path d="M40.4137 78.3577C54.8079 51.8818 91.0005 20.9857 140.664 33.857C190.327 46.7283 223.873 73.9525 218.376 121.327C212.879 168.701 183.986 208.068 121.756 209.216C59.526 210.363 8.8594 136.398 40.4137 78.3577Z" fill="#333333"/>
<path opacity="0.7" d="M40.4137 78.3577C54.8079 51.8818 91.0005 20.9857 140.664 33.857C190.327 46.7283 223.873 73.9525 218.376 121.327C212.879 168.701 183.986 208.068 121.756 209.216C59.526 210.363 8.8594 136.398 40.4137 78.3577Z" fill="white"/>
<path d="M38.5 72.4984C38.5 72.4984 39.7548 67.6926 48.2084 67.6677C56.6619 67.6427 61.6161 76.0865 61.6161 76.0865C61.6161 76.0865 65.1605 72.4086 69.4448 74.8638C73.7291 77.3191 73.7191 78.7115 73.7191 78.7115H84.7172" stroke="#333333" stroke-width="0.5" stroke-linecap="round" stroke-linejoin="round"/>
<path d="M217 80.1486C217 80.1486 215.745 75.3379 207.292 75.3129C198.838 75.288 193.884 83.7368 193.884 83.7368C193.884 83.7368 190.339 80.0588 186.055 82.5141C181.771 84.9694 181.781 86.3617 181.781 86.3617H170.783" stroke="#333333" stroke-width="0.5" stroke-linecap="round" stroke-linejoin="round"/>
<path d="M196.703 71.4404H190.504C190.504 71.4404 192.199 67.8722 188.37 63.6503C184.54 59.4284 180.646 62.238 180.646 62.238C180.646 62.238 176.887 49.3927 165.924 50.8998C154.96 52.4069 153.806 62.9567 153.806 62.9567C153.806 62.9567 151.461 60.3666 146.687 62.0684C141.913 63.7701 141.188 70.2926 142.373 73.0473C142.373 73.0473 136.938 74.1003 136.574 78.7314C136.574 78.7314 136.239 74.6342 131.124 74.5095C126.01 74.3847 124.731 80.7226 124.731 80.7226H118.986" stroke="#333333" stroke-width="0.5" stroke-linecap="round" stroke-linejoin="round"/>
<path d="M57.1519 62.248L85.827 60.8207C88.9815 50.2959 100.91 54.6975 100.91 54.6975C105.424 43.7785 115.987 48.9835 115.987 48.9835C115.987 48.9835 121.346 38.4637 131.924 40.6644C134.906 41.2236 137.675 42.5948 139.924 44.6266C142.174 46.6584 143.817 49.2716 144.672 52.1773L151.971 52.4817" stroke="#333333" stroke-width="0.5" stroke-linecap="round" stroke-linejoin="round"/>
<path d="M43.04 169.412V139.217H47.7773L51.9163 135.072V129.087H53.2976V155.98" stroke="#333333" stroke-width="0.5" stroke-linecap="round" stroke-linejoin="round"/>
<path d="M49.0539 173.801V158.05H63.256V186.838" stroke="#333333" stroke-width="0.5" stroke-linecap="round" stroke-linejoin="round"/>
<path d="M57.1174 155.98V145.781H63.256V137.242H64.8716V123.506H66.1682V133.955H68.0282V146.04L70.5215 148.534V155.297H75.1292" stroke="#333333" stroke-width="0.5" stroke-linecap="round" stroke-linejoin="round"/>
<path d="M67.4597 188.673V169.841H71.4441V160.763H76.705V146.04H79.1036" stroke="#333333" stroke-width="0.5" stroke-linecap="round" stroke-linejoin="round"/>
<path d="M184.811 160.304V155.98H181.66V147.581H180.343V155.88H175.232V159.387" stroke="#333333" stroke-width="0.5" stroke-linecap="round" stroke-linejoin="round"/>
<path d="M201.023 156.464V145.846L194.809 139.631H192.441V147.581H190.865V149.003H192.441V161.761H178.762V183.112V194.813" stroke="#333333" stroke-width="0.5" stroke-linecap="round" stroke-linejoin="round"/>
<path d="M196.32 183.711V158.05H209.54V164.504" stroke="#333333" stroke-width="0.5" stroke-linecap="round" stroke-linejoin="round"/>
<path d="M205.067 155.98V137.242H206.383V155.98" stroke="#333333" stroke-width="0.5" stroke-linecap="round" stroke-linejoin="round"/>
<path d="M175.232 193.646V175.372H162.032V151.462L151.326 140.748V129.591H149.047V176.354" stroke="#333333" stroke-width="0.5" stroke-linecap="round" stroke-linejoin="round"/>
<path d="M152.747 198.923V178.833H138.699V165.067H136.869V145.367H135.184V126.614H132.935V104.1H130.96V125.756L128.352 128.359V139.217H123.615V165.047H114.07V181.501H107.717V198.923" stroke="#333333" stroke-width="0.5" stroke-linecap="round" stroke-linejoin="round"/>
<path d="M80.5946 155.297H88.0347V173.317H93.939V188.09" stroke="#333333" stroke-width="0.5" stroke-linecap="round" stroke-linejoin="round"/>
<path d="M89.1966 161.402H93.939V144.384H116.554V161.761" stroke="#333333" stroke-width="0.5" stroke-linecap="round" stroke-linejoin="round"/>
<path d="M138.809 158.05H146.877" stroke="#333333" stroke-width="0.5" stroke-linecap="round" stroke-linejoin="round"/>
<path d="M168.245 173.801V142.11H166.535V174.22" stroke="#333333" stroke-width="0.5" stroke-linecap="round" stroke-linejoin="round"/>
<path d="M166.535 71.7258V87.1822H164.984V74.1198H155.529V87.1822H153.978V74.1198H100.501V87.1822H98.9506V74.1198H89.4958V87.1822H87.945V71.7258H166.535Z" fill="#333333"/>
<mask id="mask0_654_7799" style="mask-type:luminance" maskUnits="userSpaceOnUse" x="87" y="71" width="80" height="17">
<path d="M166.535 71.7258V87.1822H164.984V74.1198H155.529V87.1822H153.978V74.1198H100.501V87.1822H98.9506V74.1198H89.4958V87.1822H87.945V71.7258H166.535Z" fill="white"/>
</mask>
<g mask="url(#mask0_654_7799)">
<path opacity="0.5" d="M166.535 71.7258V78.2894H164.984V74.1198H155.529V78.2894H153.978V74.1198H100.501V78.2894H98.9506V74.1198H89.4958V78.2894H87.945V71.7258H166.535Z" fill="#333333"/>
</g>
<path d="M166.535 71.7258V87.1822H164.984V74.1198H155.529V87.1822H153.978V74.1198H100.501V87.1822H98.9506V74.1198H89.4958V87.1822H87.945V71.7258H166.535Z" stroke="#333333" stroke-width="0.5" stroke-linecap="round" stroke-linejoin="round"/>
<path d="M164.226 68.3492H142.419H131.858H90.1092L79.1036 75.0974H121.371H137.946H175.232L164.226 68.3492Z" fill="#333333"/>
<mask id="mask1_654_7799" style="mask-type:luminance" maskUnits="userSpaceOnUse" x="79" y="68" width="97" height="8">
<path d="M164.226 68.3492H142.419H131.858H90.1092L79.1036 75.0974H121.371H137.946H175.232L164.226 68.3492Z" fill="white"/>
</mask>
<g mask="url(#mask1_654_7799)">
<path opacity="0.1" d="M164.226 68.3492H142.419H131.858H90.1092L79.1036 75.0974H121.371H137.946H175.232L164.226 68.3492Z" fill="#333333"/>
<path opacity="0.1" d="M144.993 68.3492H112.021V75.0974H153.515L144.993 68.3492Z" fill="#333333"/>
</g>
<path d="M164.226 68.3492H142.419H131.858H90.1092L79.1036 75.0974H121.371H137.946H175.232L164.226 68.3492Z" stroke="#333333" stroke-width="0.5" stroke-linecap="round" stroke-linejoin="round"/>
<path d="M105.408 69.6461H162.421" stroke="#333333" stroke-width="0.5" stroke-linecap="round" stroke-linejoin="round"/>
<path d="M148.294 71.0825H107.912" stroke="#333333" stroke-width="0.5" stroke-linecap="round" stroke-linejoin="round"/>
<path d="M98.3622 72.7433H144.768" stroke="#333333" stroke-width="0.5" stroke-linecap="round" stroke-linejoin="round"/>
<path d="M150.124 71.0825H151.505" stroke="#333333" stroke-width="0.5" stroke-linecap="round" stroke-linejoin="round"/>
<path d="M155.933 71.0825H161.274" stroke="#333333" stroke-width="0.5" stroke-linecap="round" stroke-linejoin="round"/>
<path d="M164.834 69.6461H165.807" stroke="#333333" stroke-width="0.5" stroke-linecap="round" stroke-linejoin="round"/>
<path d="M147.561 72.7433H158.905" stroke="#333333" stroke-width="0.5" stroke-linecap="round" stroke-linejoin="round"/>
<path d="M161.274 72.7433H162.79" stroke="#333333" stroke-width="0.5" stroke-linecap="round" stroke-linejoin="round"/>
<path d="M166.535 72.7433H171.387" stroke="#333333" stroke-width="0.5" stroke-linecap="round" stroke-linejoin="round"/>
<path d="M85.6511 71.0825H96.168" stroke="#333333" stroke-width="0.5" stroke-linecap="round" stroke-linejoin="round"/>
<path d="M101.494 71.0825H102.88" stroke="#333333" stroke-width="0.5" stroke-linecap="round" stroke-linejoin="round"/>
<path d="M101.494 69.6461H90.9071" stroke="#333333" stroke-width="0.5" stroke-linecap="round" stroke-linejoin="round"/>
<path d="M87.945 72.7433H90.4483" stroke="#333333" stroke-width="0.5" stroke-linecap="round" stroke-linejoin="round"/>
<path d="M170.704 86.7334V197.821C157.444 204.803 141.203 208.918 121.68 209.292C108.459 209.472 95.3955 206.416 83.6265 200.389V86.7334H170.704Z" fill="#333333" stroke="#333333" stroke-width="0.5" stroke-miterlimit="10"/>
<path opacity="0.4" d="M170.704 86.7334V197.821C157.444 204.803 141.203 208.918 121.68 209.292C108.459 209.472 95.3955 206.416 83.6265 200.389V86.7334H170.704Z" fill="white"/>
<path opacity="0.2" d="M145.192 87.1821H141.337V206.469H145.192V87.1821Z" fill="#333333"/>
<path opacity="0.2" d="M102.486 200.319L100.501 205.307V88.7084L102.486 93.6959V200.319Z" fill="#333333"/>
<path opacity="0.2" d="M154.876 193.068L158.656 196.848H170.704V193.068H154.876Z" fill="#333333"/>
<path opacity="0.2" d="M154.876 171.038L158.656 174.818H170.704V171.038H154.876Z" fill="#333333"/>
<path opacity="0.2" d="M154.876 149.003L158.656 152.783H170.704V149.003H154.876Z" fill="#333333"/>
<path opacity="0.2" d="M154.876 126.973L158.656 130.753H170.704V126.973H154.876Z" fill="#333333"/>
<path opacity="0.2" d="M154.876 104.943L158.656 108.723H170.704V104.943H154.876Z" fill="#333333"/>
<path opacity="0.2" d="M83.5667 193.068L87.3466 196.848H100.392V193.068H83.5667Z" fill="#333333"/>
<path opacity="0.2" d="M83.5667 171.038L87.3466 174.818H100.392V171.038H83.5667Z" fill="#333333"/>
<path opacity="0.2" d="M83.5667 149.003L87.3466 152.783H100.392V149.003H83.5667Z" fill="#333333"/>
<path opacity="0.2" d="M83.5667 126.973L87.3466 130.753H100.392V126.973H83.5667Z" fill="#333333"/>
<path opacity="0.2" d="M83.5667 104.943L87.3466 108.723H100.392V104.943H83.5667Z" fill="#333333"/>
<path d="M84.8233 81.8256H169.507" stroke="#333333" stroke-width="0.5" stroke-linecap="round" stroke-linejoin="round"/>
<path d="M84.8233 83.0874H169.507" stroke="#333333" stroke-width="0.5" stroke-linecap="round" stroke-linejoin="round"/>
<path d="M84.8233 84.3492H169.507" stroke="#333333" stroke-width="0.5" stroke-linecap="round" stroke-linejoin="round"/>
<path d="M84.8233 85.6112H169.507" stroke="#333333" stroke-width="0.5" stroke-linecap="round" stroke-linejoin="round"/>
<path d="M169.507 80.7034H84.8233V86.7333H169.507V80.7034Z" stroke="#333333" stroke-width="0.5" stroke-linecap="round" stroke-linejoin="round"/>
<path d="M176.309 74.1199H78.0215V75.7508H176.309V74.1199Z" fill="#333333"/>
<mask id="mask2_654_7799" style="mask-type:luminance" maskUnits="userSpaceOnUse" x="78" y="74" width="99" height="2">
<path d="M176.309 74.1199H78.0215V75.7508H176.309V74.1199Z" fill="white"/>
</mask>
<g mask="url(#mask2_654_7799)">
<path opacity="0.2" d="M176.309 74.1199H78.0215V75.7508H176.309V74.1199Z" fill="#333333"/>
<path opacity="0.2" d="M153.978 74.1199H112.021V75.7508H153.978V74.1199Z" fill="#333333"/>
</g>
<path d="M176.309 74.1199H78.0215V75.7508H176.309V74.1199Z" stroke="#333333" stroke-width="0.5" stroke-linecap="round" stroke-linejoin="round"/>
<path d="M83.6265 200.379V86.7334H170.704V197.821" stroke="#333333" stroke-width="0.5" stroke-linecap="round" stroke-linejoin="round"/>
<path d="M111.637 210.08V68.3492H142.694V209.082" fill="#333333"/>
<mask id="mask3_654_7799" style="mask-type:luminance" maskUnits="userSpaceOnUse" x="111" y="68" width="32" height="143">
<path d="M111.637 210.08V68.3492H142.694V209.082" fill="white"/>
</mask>
<g mask="url(#mask3_654_7799)">
<path opacity="0.5" d="M142.694 69.646H111.637V73.3368H142.694V69.646Z" fill="#333333"/>
</g>
<path d="M111.637 210.08V68.3492H142.694V209.082" stroke="#333333" stroke-width="0.5" stroke-linecap="round" stroke-linejoin="round"/>
<path d="M122.562 90.7732H113.95V97.3368H122.562V90.7732Z" fill="white" stroke="#333333" stroke-width="0.5" stroke-linecap="round" stroke-linejoin="round"/>
<path d="M122.313 91.0226H118.508V97.0874H122.313V91.0226Z" fill="white"/>
<path d="M122.064 91.2719V96.838H118.758V91.2719H122.064ZM122.562 90.7732H118.259V97.3368H122.562V90.7732Z" fill="#333333"/>
<path d="M98.397 90.7732H85.1026V103.367H98.397V90.7732Z" fill="white" stroke="#333333" stroke-width="0.5" stroke-linecap="round" stroke-linejoin="round"/>
<path d="M89.4958 90.7732V103.367" stroke="#333333" stroke-width="0.5" stroke-linecap="round" stroke-linejoin="round"/>
<path d="M97.9034 91.2719V102.868H94.4376V91.2719H97.9034ZM98.402 90.7732H93.939V103.367H98.402V90.7732Z" fill="#333333"/>
<path d="M99.4542 103.367H80.5946V105.008H99.4542V103.367Z" fill="#333333" stroke="#333333" stroke-width="0.5" stroke-linecap="round" stroke-linejoin="round"/>
<path d="M80.5946 98.459H99.4542" stroke="#333333" stroke-width="0.5" stroke-linecap="round" stroke-linejoin="round"/>
<path d="M80.5946 99.7208H99.4542" stroke="#333333" stroke-width="0.5" stroke-linecap="round" stroke-linejoin="round"/>
<path d="M80.5946 100.983H99.4542" stroke="#333333" stroke-width="0.5" stroke-linecap="round" stroke-linejoin="round"/>
<path d="M80.5946 102.245H99.4542" stroke="#333333" stroke-width="0.5" stroke-linecap="round" stroke-linejoin="round"/>
<path d="M99.4542 97.3368H80.5946V103.367H99.4542V97.3368Z" stroke="#333333" stroke-width="0.5" stroke-linecap="round" stroke-linejoin="round"/>
<path d="M107.458 90.7732H104.625V97.3368H107.458V90.7732Z" fill="white" stroke="#333333" stroke-width="0.5" stroke-linecap="round" stroke-linejoin="round"/>
<path d="M131.768 97.3368H140.38V90.7732H131.768V97.3368Z" fill="white" stroke="#333333" stroke-width="0.5" stroke-linecap="round" stroke-linejoin="round"/>
<path d="M135.822 91.0226H132.017V97.0874H135.822V91.0226Z" fill="white"/>
<path d="M135.578 91.2719V96.838H132.262V91.2719H135.573M136.071 90.7732H131.763V97.3368H136.071V90.7732Z" fill="#333333"/>
<path d="M155.933 103.367H169.228V90.7732H155.933V103.367Z" fill="white" stroke="#333333" stroke-width="0.5" stroke-linecap="round" stroke-linejoin="round"/>
<path d="M164.834 90.7732V103.367" stroke="#333333" stroke-width="0.5" stroke-linecap="round" stroke-linejoin="round"/>
<path d="M159.893 91.2719V102.868H156.432V91.2719H159.893ZM160.391 90.7732H155.933V103.367H160.391V90.7732Z" fill="#333333"/>
<path d="M154.881 105.013H173.741V103.372H154.881V105.013Z" fill="#333333" stroke="#333333" stroke-width="0.5" stroke-linecap="round" stroke-linejoin="round"/>
<path d="M173.736 98.459H154.876" stroke="#333333" stroke-width="0.5" stroke-linecap="round" stroke-linejoin="round"/>
<path d="M173.736 99.7208H154.876" stroke="#333333" stroke-width="0.5" stroke-linecap="round" stroke-linejoin="round"/>
<path d="M173.736 100.983H154.876" stroke="#333333" stroke-width="0.5" stroke-linecap="round" stroke-linejoin="round"/>
<path d="M173.736 102.245H154.876" stroke="#333333" stroke-width="0.5" stroke-linecap="round" stroke-linejoin="round"/>
<path d="M154.881 103.372H173.741V97.3418H154.881V103.372Z" stroke="#333333" stroke-width="0.5" stroke-linecap="round" stroke-linejoin="round"/>
<path d="M146.872 97.3368H149.705V90.7732H146.872V97.3368Z" fill="white" stroke="#333333" stroke-width="0.5" stroke-linecap="round" stroke-linejoin="round"/>
<path d="M122.562 112.788H113.95V119.352H122.562V112.788Z" fill="white" stroke="#333333" stroke-width="0.5" stroke-linecap="round" stroke-linejoin="round"/>
<path d="M122.313 113.038H118.508V119.102H122.313V113.038Z" fill="white"/>
<path d="M122.064 113.287V118.858H118.758V113.287H122.064ZM122.562 112.788H118.259V119.357H122.562V112.788Z" fill="#333333"/>
<path d="M98.397 112.788H85.1026V125.382H98.397V112.788Z" fill="white" stroke="#333333" stroke-width="0.5" stroke-linecap="round" stroke-linejoin="round"/>
<path d="M89.4958 112.788V125.382" stroke="#333333" stroke-width="0.5" stroke-linecap="round" stroke-linejoin="round"/>
<path d="M97.9034 113.287V124.883H94.4376V113.287H97.9034ZM98.402 112.788H93.939V125.382H98.402V112.788Z" fill="#333333"/>
<path d="M99.4542 125.382H80.5946V127.023H99.4542V125.382Z" fill="#333333" stroke="#333333" stroke-width="0.5" stroke-linecap="round" stroke-linejoin="round"/>
<path d="M80.5946 120.474H99.4542" stroke="#333333" stroke-width="0.5" stroke-linecap="round" stroke-linejoin="round"/>
<path d="M80.5946 121.736H99.4542" stroke="#333333" stroke-width="0.5" stroke-linecap="round" stroke-linejoin="round"/>
<path d="M80.5946 122.998H99.4542" stroke="#333333" stroke-width="0.5" stroke-linecap="round" stroke-linejoin="round"/>
<path d="M80.5946 124.26H99.4542" stroke="#333333" stroke-width="0.5" stroke-linecap="round" stroke-linejoin="round"/>
<path d="M99.4542 119.352H80.5946V125.382H99.4542V119.352Z" stroke="#333333" stroke-width="0.5" stroke-linecap="round" stroke-linejoin="round"/>
<path d="M107.458 112.788H104.625V119.352H107.458V112.788Z" fill="white" stroke="#333333" stroke-width="0.5" stroke-linecap="round" stroke-linejoin="round"/>
<path d="M131.768 119.352H140.38V112.788H131.768V119.352Z" fill="white" stroke="#333333" stroke-width="0.5" stroke-linecap="round" stroke-linejoin="round"/>
<path d="M135.822 113.038H132.017V119.102H135.822V113.038Z" fill="white"/>
<path d="M135.578 113.287V118.858H132.262V113.287H135.573M136.071 112.788H131.763V119.357H136.071V112.788Z" fill="#333333"/>
<path d="M155.933 125.382H169.228V112.788H155.933V125.382Z" fill="white" stroke="#333333" stroke-width="0.5" stroke-linecap="round" stroke-linejoin="round"/>
<path d="M164.834 112.788V125.382" stroke="#333333" stroke-width="0.5" stroke-linecap="round" stroke-linejoin="round"/>
<path d="M159.893 113.287V124.883H156.432V113.287H159.893ZM160.391 112.788H155.933V125.382H160.391V112.788Z" fill="#333333"/>
<path d="M154.881 127.023H173.741V125.382H154.881V127.023Z" fill="#333333" stroke="#333333" stroke-width="0.5" stroke-linecap="round" stroke-linejoin="round"/>
<path d="M173.736 120.474H154.876" stroke="#333333" stroke-width="0.5" stroke-linecap="round" stroke-linejoin="round"/>
<path d="M173.736 121.736H154.876" stroke="#333333" stroke-width="0.5" stroke-linecap="round" stroke-linejoin="round"/>
<path d="M173.736 122.998H154.876" stroke="#333333" stroke-width="0.5" stroke-linecap="round" stroke-linejoin="round"/>
<path d="M173.736 124.26H154.876" stroke="#333333" stroke-width="0.5" stroke-linecap="round" stroke-linejoin="round"/>
<path d="M154.881 125.382H173.741V119.352H154.881V125.382Z" stroke="#333333" stroke-width="0.5" stroke-linecap="round" stroke-linejoin="round"/>
<path d="M146.872 119.352H149.705V112.788H146.872V119.352Z" fill="white" stroke="#333333" stroke-width="0.5" stroke-linecap="round" stroke-linejoin="round"/>
<path d="M122.562 134.803H113.95V141.367H122.562V134.803Z" fill="white" stroke="#333333" stroke-width="0.5" stroke-linecap="round" stroke-linejoin="round"/>
<path d="M122.313 135.052H118.508V141.117H122.313V135.052Z" fill="white"/>
<path d="M122.064 135.317V140.883H118.758V135.317H122.064ZM122.562 134.818H118.259V141.382H122.562V134.818Z" fill="#333333"/>
<path d="M98.397 134.803H85.1026V147.397H98.397V134.803Z" fill="white" stroke="#333333" stroke-width="0.5" stroke-linecap="round" stroke-linejoin="round"/>
<path d="M89.4958 134.803V147.397" stroke="#333333" stroke-width="0.5" stroke-linecap="round" stroke-linejoin="round"/>
<path d="M97.9034 135.317V146.913H94.4376V135.317H97.9034ZM98.402 134.818H93.939V147.412H98.402V134.818Z" fill="#333333"/>
<path d="M99.4542 147.397H80.5946V149.038H99.4542V147.397Z" fill="#333333" stroke="#333333" stroke-width="0.5" stroke-linecap="round" stroke-linejoin="round"/>
<path d="M80.5946 142.489H99.4542" stroke="#333333" stroke-width="0.5" stroke-linecap="round" stroke-linejoin="round"/>
<path d="M80.5946 143.751H99.4542" stroke="#333333" stroke-width="0.5" stroke-linecap="round" stroke-linejoin="round"/>
<path d="M80.5946 145.013H99.4542" stroke="#333333" stroke-width="0.5" stroke-linecap="round" stroke-linejoin="round"/>
<path d="M80.5946 146.274H99.4542" stroke="#333333" stroke-width="0.5" stroke-linecap="round" stroke-linejoin="round"/>
<path d="M99.4542 141.367H80.5946V147.397H99.4542V141.367Z" stroke="#333333" stroke-width="0.5" stroke-linecap="round" stroke-linejoin="round"/>
<path d="M107.458 134.803H104.625V141.367H107.458V134.803Z" fill="white" stroke="#333333" stroke-width="0.5" stroke-linecap="round" stroke-linejoin="round"/>
<path d="M131.768 141.367H140.38V134.803H131.768V141.367Z" fill="white" stroke="#333333" stroke-width="0.5" stroke-linecap="round" stroke-linejoin="round"/>
<path d="M135.822 135.052H132.017V141.117H135.822V135.052Z" fill="white"/>
<path d="M135.578 135.317V140.883H132.262V135.317H135.573M136.071 134.818H131.763V141.382H136.071V134.818Z" fill="#333333"/>
<path d="M155.933 147.397H169.228V134.803H155.933V147.397Z" fill="white" stroke="#333333" stroke-width="0.5" stroke-linecap="round" stroke-linejoin="round"/>
<path d="M164.834 134.803V147.397" stroke="#333333" stroke-width="0.5" stroke-linecap="round" stroke-linejoin="round"/>
<path d="M159.893 135.317V146.913H156.432V135.317H159.893ZM160.391 134.818H155.933V147.412H160.391V134.818Z" fill="#333333"/>
<path d="M154.881 149.038H173.741V147.397H154.881V149.038Z" fill="#333333" stroke="#333333" stroke-width="0.5" stroke-linecap="round" stroke-linejoin="round"/>
<path d="M173.736 142.489H154.876" stroke="#333333" stroke-width="0.5" stroke-linecap="round" stroke-linejoin="round"/>
<path d="M173.736 143.751H154.876" stroke="#333333" stroke-width="0.5" stroke-linecap="round" stroke-linejoin="round"/>
<path d="M173.736 145.013H154.876" stroke="#333333" stroke-width="0.5" stroke-linecap="round" stroke-linejoin="round"/>
<path d="M173.736 146.274H154.876" stroke="#333333" stroke-width="0.5" stroke-linecap="round" stroke-linejoin="round"/>
<path d="M154.881 147.397H173.741V141.367H154.881V147.397Z" stroke="#333333" stroke-width="0.5" stroke-linecap="round" stroke-linejoin="round"/>
<path d="M146.872 141.367H149.705V134.803H146.872V141.367Z" fill="white" stroke="#333333" stroke-width="0.5" stroke-linecap="round" stroke-linejoin="round"/>
<path d="M122.562 156.818H113.95V163.382H122.562V156.818Z" fill="white" stroke="#333333" stroke-width="0.5" stroke-linecap="round" stroke-linejoin="round"/>
<path d="M122.313 157.068H118.508V163.132H122.313V157.068Z" fill="white"/>
<path d="M122.064 157.317V162.883H118.758V157.317H122.064ZM122.562 156.818H118.259V163.382H122.562V156.818Z" fill="#333333"/>
<path d="M98.397 156.818H85.1026V169.412H98.397V156.818Z" fill="white" stroke="#333333" stroke-width="0.5" stroke-linecap="round" stroke-linejoin="round"/>
<path d="M89.4958 156.818V169.412" stroke="#333333" stroke-width="0.5" stroke-linecap="round" stroke-linejoin="round"/>
<path d="M97.9034 157.317V168.913H94.4376V157.317H97.9034ZM98.402 156.818H93.939V169.412H98.402V156.818Z" fill="#333333"/>
<path d="M99.4542 169.412H80.5946V171.053H99.4542V169.412Z" fill="#333333" stroke="#333333" stroke-width="0.5" stroke-linecap="round" stroke-linejoin="round"/>
<path d="M80.5946 164.504H99.4542" stroke="#333333" stroke-width="0.5" stroke-linecap="round" stroke-linejoin="round"/>
<path d="M80.5946 165.766H99.4542" stroke="#333333" stroke-width="0.5" stroke-linecap="round" stroke-linejoin="round"/>
<path d="M80.5946 167.028H99.4542" stroke="#333333" stroke-width="0.5" stroke-linecap="round" stroke-linejoin="round"/>
<path d="M80.5946 168.289H99.4542" stroke="#333333" stroke-width="0.5" stroke-linecap="round" stroke-linejoin="round"/>
<path d="M99.4542 163.382H80.5946V169.412H99.4542V163.382Z" stroke="#333333" stroke-width="0.5" stroke-linecap="round" stroke-linejoin="round"/>
<path d="M107.458 156.818H104.625V163.382H107.458V156.818Z" fill="white" stroke="#333333" stroke-width="0.5" stroke-linecap="round" stroke-linejoin="round"/>
<path d="M131.768 163.382H140.38V156.818H131.768V163.382Z" fill="white" stroke="#333333" stroke-width="0.5" stroke-linecap="round" stroke-linejoin="round"/>
<path d="M135.822 157.068H132.017V163.132H135.822V157.068Z" fill="white"/>
<path d="M135.578 157.317V162.883H132.262V157.317H135.573M136.071 156.818H131.763V163.382H136.071V156.818Z" fill="#333333"/>
<path d="M155.933 169.412H169.228V156.818H155.933V169.412Z" fill="white" stroke="#333333" stroke-width="0.5" stroke-linecap="round" stroke-linejoin="round"/>
<path d="M164.834 156.818V169.412" stroke="#333333" stroke-width="0.5" stroke-linecap="round" stroke-linejoin="round"/>
<path d="M159.893 157.317V168.913H156.432V157.317H159.893ZM160.391 156.818H155.933V169.412H160.391V156.818Z" fill="#333333"/>
<path d="M154.881 171.053H173.741V169.412H154.881V171.053Z" fill="#333333" stroke="#333333" stroke-width="0.5" stroke-linecap="round" stroke-linejoin="round"/>
<path d="M173.736 164.504H154.876" stroke="#333333" stroke-width="0.5" stroke-linecap="round" stroke-linejoin="round"/>
<path d="M173.736 165.766H154.876" stroke="#333333" stroke-width="0.5" stroke-linecap="round" stroke-linejoin="round"/>
<path d="M173.736 167.028H154.876" stroke="#333333" stroke-width="0.5" stroke-linecap="round" stroke-linejoin="round"/>
<path d="M173.736 168.289H154.876" stroke="#333333" stroke-width="0.5" stroke-linecap="round" stroke-linejoin="round"/>
<path d="M154.881 169.412H173.741V163.382H154.881V169.412Z" stroke="#333333" stroke-width="0.5" stroke-linecap="round" stroke-linejoin="round"/>
<path d="M146.872 163.382H149.705V156.818H146.872V163.382Z" fill="white" stroke="#333333" stroke-width="0.5" stroke-linecap="round" stroke-linejoin="round"/>
<path d="M122.562 178.833H113.95V185.397H122.562V178.833Z" fill="white" stroke="#333333" stroke-width="0.5" stroke-linecap="round" stroke-linejoin="round"/>
<path d="M122.313 179.082H118.508V185.147H122.313V179.082Z" fill="white"/>
<path d="M122.064 179.332V184.898H118.758V179.332H122.064ZM122.562 178.833H118.259V185.397H122.562V178.833Z" fill="#333333"/>
<path d="M98.397 178.833H85.1026V191.427H98.397V178.833Z" fill="white" stroke="#333333" stroke-width="0.5" stroke-linecap="round" stroke-linejoin="round"/>
<path d="M89.4958 178.833V191.427" stroke="#333333" stroke-width="0.5" stroke-linecap="round" stroke-linejoin="round"/>
<path d="M97.9034 179.332V190.928H94.4376V179.332H97.9034ZM98.402 178.833H93.939V191.427H98.402V178.833Z" fill="#333333"/>
<path d="M99.4542 191.427H80.5946V193.067H99.4542V191.427Z" fill="#333333" stroke="#333333" stroke-width="0.5" stroke-linecap="round" stroke-linejoin="round"/>
<path d="M80.5946 186.519H99.4542" stroke="#333333" stroke-width="0.5" stroke-linecap="round" stroke-linejoin="round"/>
<path d="M80.5946 187.781H99.4542" stroke="#333333" stroke-width="0.5" stroke-linecap="round" stroke-linejoin="round"/>
<path d="M80.5946 189.042H99.4542" stroke="#333333" stroke-width="0.5" stroke-linecap="round" stroke-linejoin="round"/>
<path d="M80.5946 190.304H99.4542" stroke="#333333" stroke-width="0.5" stroke-linecap="round" stroke-linejoin="round"/>
<path d="M99.4542 185.397H80.5946V191.427H99.4542V185.397Z" stroke="#333333" stroke-width="0.5" stroke-linecap="round" stroke-linejoin="round"/>
<path d="M107.458 178.833H104.625V185.397H107.458V178.833Z" fill="white" stroke="#333333" stroke-width="0.5" stroke-linecap="round" stroke-linejoin="round"/>
<path d="M131.768 185.397H140.38V178.833H131.768V185.397Z" fill="white" stroke="#333333" stroke-width="0.5" stroke-linecap="round" stroke-linejoin="round"/>
<path d="M135.822 179.082H132.017V185.147H135.822V179.082Z" fill="white"/>
<path d="M135.578 179.332V184.898H132.262V179.332H135.573M136.071 178.833H131.763V185.397H136.071V178.833Z" fill="#333333"/>
<path d="M155.933 191.427H169.228V178.833H155.933V191.427Z" fill="white" stroke="#333333" stroke-width="0.5" stroke-linecap="round" stroke-linejoin="round"/>
<path d="M164.834 178.833V191.427" stroke="#333333" stroke-width="0.5" stroke-linecap="round" stroke-linejoin="round"/>
<path d="M159.893 179.332V190.928H156.432V179.332H159.893ZM160.391 178.833H155.933V191.427H160.391V178.833Z" fill="#333333"/>
<path d="M154.881 193.068H173.741V191.427H154.881V193.068Z" fill="#333333" stroke="#333333" stroke-width="0.5" stroke-linecap="round" stroke-linejoin="round"/>
<path d="M173.736 186.519H154.876" stroke="#333333" stroke-width="0.5" stroke-linecap="round" stroke-linejoin="round"/>
<path d="M173.736 187.781H154.876" stroke="#333333" stroke-width="0.5" stroke-linecap="round" stroke-linejoin="round"/>
<path d="M173.736 189.042H154.876" stroke="#333333" stroke-width="0.5" stroke-linecap="round" stroke-linejoin="round"/>
<path d="M173.736 190.304H154.876" stroke="#333333" stroke-width="0.5" stroke-linecap="round" stroke-linejoin="round"/>
<path d="M154.881 191.427H173.741V185.397H154.881V191.427Z" stroke="#333333" stroke-width="0.5" stroke-linecap="round" stroke-linejoin="round"/>
<path d="M146.872 185.397H149.705V178.833H146.872V185.397Z" fill="white" stroke="#333333" stroke-width="0.5" stroke-linecap="round" stroke-linejoin="round"/>
<path d="M142.694 71.7258H111.637V78.2894H142.694V71.7258Z" fill="white"/>
<mask id="mask4_654_7799" style="mask-type:luminance" maskUnits="userSpaceOnUse" x="111" y="71" width="32" height="8">
<path d="M142.694 71.7258H111.637V78.2894H142.694V71.7258Z" fill="white"/>
</mask>
<g mask="url(#mask4_654_7799)">
<path opacity="0.3" d="M142.699 71.7258H111.637V73.6061H142.699V71.7258Z" fill="#333333"/>
</g>
<path d="M142.694 71.7258H111.637V78.2894H142.694V71.7258Z" stroke="#333333" stroke-width="0.5" stroke-linecap="round" stroke-linejoin="round"/>
<path d="M115.137 71.7258V78.2894" stroke="#333333" stroke-width="0.5" stroke-linecap="round" stroke-linejoin="round"/>
<path d="M119.147 71.7258V78.2894" stroke="#333333" stroke-width="0.5" stroke-linecap="round" stroke-linejoin="round"/>
<path d="M123.156 71.7258V78.2894" stroke="#333333" stroke-width="0.5" stroke-linecap="round" stroke-linejoin="round"/>
<path d="M127.165 71.7258V78.2894" stroke="#333333" stroke-width="0.5" stroke-linecap="round" stroke-linejoin="round"/>
<path d="M131.174 71.7258V78.2894" stroke="#333333" stroke-width="0.5" stroke-linecap="round" stroke-linejoin="round"/>
<path d="M135.184 71.7258V78.2894" stroke="#333333" stroke-width="0.5" stroke-linecap="round" stroke-linejoin="round"/>
<path d="M139.198 71.7258V78.2894" stroke="#333333" stroke-width="0.5" stroke-linecap="round" stroke-linejoin="round"/>
<path d="M146.618 68.8331H107.717L113.217 62.08H141.113L146.618 68.8331Z" fill="#333333"/>
<mask id="mask5_654_7799" style="mask-type:luminance" maskUnits="userSpaceOnUse" x="107" y="62" width="40" height="7">
<path d="M146.618 68.8331H107.717L113.217 62.08H141.113L146.618 68.8331Z" fill="white"/>
</mask>
<g mask="url(#mask5_654_7799)">
<path opacity="0.1" d="M146.618 68.8331H107.717L113.217 62.08H141.113L146.618 68.8331Z" fill="#333333"/>
</g>
<path d="M146.618 68.8331H107.717L113.217 62.08H141.113L146.618 68.8331Z" stroke="#333333" stroke-width="0.5" stroke-linecap="round" stroke-linejoin="round"/>
<path d="M147.147 68.0151H107.189V69.6461H147.147V68.0151Z" fill="#333333"/>
<mask id="mask6_654_7799" style="mask-type:luminance" maskUnits="userSpaceOnUse" x="107" y="68" width="41" height="2">
<path d="M147.147 68.0151H107.189V69.6461H147.147V68.0151Z" fill="white"/>
</mask>
<g mask="url(#mask6_654_7799)">
<path opacity="0.2" d="M147.147 68.0151H107.189V69.6461H147.147V68.0151Z" fill="#333333"/>
</g>
<path d="M147.147 68.0151H107.189V69.6461H147.147V68.0151Z" stroke="#333333" stroke-width="0.5" stroke-linecap="round" stroke-linejoin="round"/>
<path opacity="0.2" d="M115.422 81.3867H118.329V80.2196H115.422V81.3867Z" fill="#333333"/>
<path opacity="0.2" d="M117.75 82.7184H120.658V81.5513H117.75V82.7184Z" fill="#333333"/>
<path opacity="0.2" d="M125.923 89.2969H128.831V88.1298H125.923V89.2969Z" fill="#333333"/>
<path opacity="0.2" d="M124.467 90.8381H127.375V89.6711H124.467V90.8381Z" fill="#333333"/>
<path opacity="0.2" d="M113.97 101.262H116.878V100.095H113.97V101.262Z" fill="#333333"/>
<path opacity="0.2" d="M115.561 102.713H118.468V101.546H115.561V102.713Z" fill="#333333"/>
<path opacity="0.2" d="M132.491 104.1H135.398V102.933H132.491V104.1Z" fill="#333333"/>
<path opacity="0.2" d="M130.955 105.656H133.862V104.489H130.955V105.656Z" fill="#333333"/>
<path opacity="0.2" d="M114.888 111.761H117.795V110.594H114.888V111.761Z" fill="#333333"/>
<path opacity="0.2" d="M117.227 101.262H120.134V100.095H117.227V101.262Z" fill="#333333"/>
<path opacity="0.2" d="M129.354 133.955H126.447V135.122H129.354V133.955Z" fill="#333333"/>
<path opacity="0.2" d="M116.553 132.619H113.646V133.786H116.553V132.619Z" fill="#333333"/>
<path opacity="0.2" d="M120.353 125.047H117.446V126.215H120.353V125.047Z" fill="#333333"/>
<path opacity="0.2" d="M121.804 123.506H118.897V124.673H121.804V123.506Z" fill="#333333"/>
<path opacity="0.2" d="M130.805 114.08H127.898V115.247H130.805V114.08Z" fill="#333333"/>
<path opacity="0.2" d="M129.215 112.624H126.307V113.791H129.215V112.624Z" fill="#333333"/>
<path opacity="0.2" d="M136.156 84.7284H133.249V85.8955H136.156V84.7284Z" fill="#333333"/>
<path opacity="0.2" d="M137.692 83.1722H134.785V84.3393H137.692V83.1722Z" fill="#333333"/>
<path opacity="0.2" d="M136.824 109.337H133.917V110.504H136.824V109.337Z" fill="#333333"/>
<path opacity="0.2" d="M127.549 114.08H124.642V115.247H127.549V114.08Z" fill="#333333"/>
<path opacity="0.2" d="M139.507 125.756H136.6V126.923H139.507V125.756Z" fill="#333333"/>
<path opacity="0.2" d="M137.178 124.419H134.271V125.586H137.178V124.419Z" fill="#333333"/>
<path opacity="0.2" d="M129.509 187.172H126.602V188.339H129.509V187.172Z" fill="#333333"/>
<path opacity="0.2" d="M136.445 196.599H133.538V197.766H136.445V196.599Z" fill="#333333"/>
<path opacity="0.2" d="M141.956 177.197H139.048V178.364H141.956V177.197Z" fill="#333333"/>
<path opacity="0.2" d="M140.365 175.746H137.458V176.913H140.365V175.746Z" fill="#333333"/>
<path opacity="0.2" d="M117.95 176.354H115.043V177.521H117.95V176.354Z" fill="#333333"/>
<path opacity="0.2" d="M119.486 174.798H116.578V175.965H119.486V174.798Z" fill="#333333"/>
<path opacity="0.2" d="M141.038 166.698H138.131V167.865H141.038V166.698Z" fill="#333333"/>
<path opacity="0.2" d="M138.699 177.197H135.792V178.364H138.699V177.197Z" fill="#333333"/>
<path opacity="0.2" d="M124.881 177.272C127.709 177.242 130.621 177.242 133.359 177.272H124.881Z" fill="#333333"/>
<path opacity="0.2" d="M120.094 143.008H123.001V141.841H120.094V143.008Z" fill="#333333"/>
<path opacity="0.2" d="M122.418 144.344H125.325V143.177H122.418V144.344Z" fill="#333333"/>
<path opacity="0.2" d="M129.095 151.915H132.002V150.748H129.095V151.915Z" fill="#333333"/>
<path opacity="0.2" d="M127.639 168.918H130.546V167.751H127.639V168.918Z" fill="#333333"/>
<path opacity="0.2" d="M118.638 160.893H121.545V159.726H118.638V160.893Z" fill="#333333"/>
<path opacity="0.2" d="M120.234 162.344H123.141V161.177H120.234V162.344Z" fill="#333333"/>
<path opacity="0.2" d="M117.775 192.733H120.682V191.566H117.775V192.733Z" fill="#333333"/>
<path opacity="0.2" d="M116.239 194.289H119.147V193.122H116.239V194.289Z" fill="#333333"/>
<path opacity="0.2" d="M112.619 165.626H115.526V164.459H112.619V165.626Z" fill="#333333"/>
<path opacity="0.2" d="M121.894 160.893H124.801V159.726H121.894V160.893Z" fill="#333333"/>
<path opacity="0.1" d="M112.001 188.758H114.908V187.591H112.001V188.758Z" fill="#333333"/>
<path opacity="0.1" d="M114.334 187.422H117.242V186.255H114.334V187.422Z" fill="#333333"/>
<path opacity="0.1" d="M136.415 190.215H139.323V189.048H136.415V190.215Z" fill="#333333"/>
<path opacity="0.1" d="M134.959 188.673H137.867V187.506H134.959V188.673Z" fill="#333333"/>
<path opacity="0.1" d="M134.097 172.673H137.004V171.506H134.097V172.673Z" fill="#333333"/>
<path opacity="0.1" d="M135.692 171.227H138.6V170.06H135.692V171.227Z" fill="#333333"/>
<path opacity="0.1" d="M125.35 180.12H128.257V178.953H125.35V180.12Z" fill="#333333"/>
<path opacity="0.1" d="M123.814 178.564H126.721V177.397H123.814V178.564Z" fill="#333333"/>
<path opacity="0.1" d="M127.25 194.813H130.157V193.646H127.25V194.813Z" fill="#333333"/>
<path opacity="0.1" d="M137.353 172.673H140.26V171.506H137.353V172.673Z" fill="#333333"/>
<path opacity="0.1" d="M129.354 142.863H126.447V144.03H129.354V142.863Z" fill="#333333"/>
<path opacity="0.1" d="M116.553 144.2H113.646V145.367H116.553V144.2Z" fill="#333333"/>
<path opacity="0.1" d="M119.196 150.289H116.289V151.457H119.196V150.289Z" fill="#333333"/>
<path opacity="0.1" d="M120.648 151.836H117.74V153.003H120.648V151.836Z" fill="#333333"/>
<path opacity="0.1" d="M123.665 167.806H120.757V168.973H123.665V167.806Z" fill="#333333"/>
<path opacity="0.1" d="M122.074 169.257H119.167V170.424H122.074V169.257Z" fill="#333333"/>
<path opacity="0.1" d="M115.407 155.297H112.499V156.464H115.407V155.297Z" fill="#333333"/>
<path opacity="0.1" d="M120.408 167.806H117.501V168.973H120.408V167.806Z" fill="#333333"/>
<path opacity="0.1" d="M139.507 151.062H136.6V152.23H139.507V151.062Z" fill="#333333"/>
<path opacity="0.1" d="M137.178 152.399H134.271V153.566H137.178V152.399Z" fill="#333333"/>
<path opacity="0.1" d="M117.446 84.7284H114.539V85.8955H117.446V84.7284Z" fill="#333333"/>
<path opacity="0.1" d="M138.969 80.474H136.061V81.6411H138.969V80.474Z" fill="#333333"/>
<path opacity="0.1" d="M140.774 98.8929H137.867V100.06H140.774V98.8929Z" fill="#333333"/>
<path opacity="0.1" d="M139.178 100.344H136.271V101.511H139.178V100.344Z" fill="#333333"/>
<path opacity="0.1" d="M127.09 82.5886H124.183V83.7557H127.09V82.5886Z" fill="#333333"/>
<path opacity="0.1" d="M128.626 84.1448H125.719V85.3119H128.626V84.1448Z" fill="#333333"/>
<path opacity="0.1" d="M141.038 110.115H138.131V111.282H141.038V110.115Z" fill="#333333"/>
<path opacity="0.1" d="M137.517 98.8929H134.61V100.06H137.517V98.8929Z" fill="#333333"/>
<path opacity="0.1" d="M116.554 108.13H119.461V106.963H116.554V108.13Z" fill="#333333"/>
<path opacity="0.1" d="M118.877 106.793H121.785V105.626H118.877V106.793Z" fill="#333333"/>
<path opacity="0.1" d="M123.42 130.758H126.327V129.591H123.42V130.758Z" fill="#333333"/>
<path opacity="0.1" d="M127.639 110.23H130.546V109.063H127.639V110.23Z" fill="#333333"/>
<path opacity="0.1" d="M125.468 129.477L128.373 129.601L128.423 128.435L125.518 128.311L125.468 129.477Z" fill="#333333"/>
<path opacity="0.1" d="M126.677 128.308L129.585 128.424L129.631 127.257L126.724 127.141L126.677 128.308Z" fill="#333333"/>
<path opacity="0.1" d="M126.178 98.4341H129.085V97.267H126.178V98.4341Z" fill="#333333"/>
<path opacity="0.1" d="M124.642 96.8779H127.549V95.7108H124.642V96.8779Z" fill="#333333"/>
<path opacity="0.1" d="M125.325 120.957L128.23 121.08L128.279 119.914L125.375 119.791L125.325 120.957Z" fill="#333333"/>
<path opacity="0.1" d="M128.718 129.613L131.623 129.737L131.673 128.571L128.768 128.447L128.718 129.613Z" fill="#333333"/>
<path d="M100.501 88.7084V201.586" stroke="#333333" stroke-width="0.5" stroke-linecap="round" stroke-linejoin="round"/>
<path d="M153.978 88.7084V201.586" stroke="#333333" stroke-width="0.5" stroke-linecap="round" stroke-linejoin="round"/>
<path d="M137.916 63.5214H139.587" stroke="#333333" stroke-width="0.5" stroke-linecap="round" stroke-linejoin="round"/>
<path d="M118.798 63.4963C123.704 63.4963 128.611 63.4963 133.518 63.4963" stroke="#333333" stroke-width="0.5" stroke-linecap="round" stroke-linejoin="round"/>
<path d="M112.046 63.5214H117.147" stroke="#333333" stroke-width="0.5" stroke-linecap="round" stroke-linejoin="round"/>
<path d="M122.338 64.9578H119.92" stroke="#333333" stroke-width="0.5" stroke-linecap="round" stroke-linejoin="round"/>
<path d="M143.262 64.9578C138.535 64.9778 133.807 64.9778 129.08 64.9578" stroke="#333333" stroke-width="0.5" stroke-linecap="round" stroke-linejoin="round"/>
<path d="M142.135 66.6136H143.262" stroke="#333333" stroke-width="0.5" stroke-linecap="round" stroke-linejoin="round"/>
<path d="M124.078 66.6136H133.802" stroke="#333333" stroke-width="0.5" stroke-linecap="round" stroke-linejoin="round"/>
<path d="M113.901 66.6136H122.557" stroke="#333333" stroke-width="0.5" stroke-linecap="round" stroke-linejoin="round"/>
<path d="M109.522 66.6136H110.968" stroke="#333333" stroke-width="0.5" stroke-linecap="round" stroke-linejoin="round"/>
<path d="M125.909 64.9578H126.701" stroke="#333333" stroke-width="0.5" stroke-linecap="round" stroke-linejoin="round"/>
<path d="M81.7299 112.745L77.3453 109.525V111.27H55.8852C55.2252 111.27 54.5923 111.011 54.1256 110.55C53.659 110.089 53.3968 109.464 53.3968 108.812V105.291H70.6714C71.1747 105.29 71.657 105.092 72.0125 104.739C72.3679 104.387 72.5676 103.91 72.5676 103.413V94.8631C72.5676 94.3659 72.3679 93.8889 72.0125 93.5368C71.657 93.1847 71.1747 92.9863 70.6714 92.985H33.1262C32.8767 92.985 32.6298 93.0336 32.3994 93.128C32.169 93.2225 31.9598 93.3609 31.7836 93.5354C31.6075 93.7099 31.4679 93.9169 31.3729 94.1448C31.2779 94.3726 31.2293 94.6167 31.23 94.8631V103.398C31.2274 103.646 31.2745 103.892 31.3686 104.121C31.4627 104.351 31.602 104.56 31.7783 104.736C31.9546 104.912 32.1646 105.051 32.3959 105.147C32.6273 105.242 32.8755 105.291 33.1262 105.291H50.4107V109.544C50.4107 110.787 50.9102 111.98 51.7996 112.859C52.6889 113.739 53.8953 114.233 55.1536 114.235H77.3553V115.985L81.7299 112.745Z" fill="white" stroke="#333333" stroke-width="0.5" stroke-linecap="round" stroke-linejoin="round"/>
<path d="M37.7198 96.402L38.6156 98.1966L40.6213 98.4866L39.173 99.883L39.5164 101.859L37.7198 100.93L35.9232 101.859L36.2666 99.883L34.8133 98.4866L36.819 98.1966L37.7198 96.402Z" fill="#333333" stroke="#333333" stroke-width="0.5" stroke-linecap="round" stroke-linejoin="round"/>
<path d="M44.8068 96.402L45.7026 98.1966L47.7132 98.4866L46.26 99.883L46.6034 101.859L44.8068 100.93L43.0101 101.859L43.3535 99.883L41.9003 98.4866L43.906 98.1966L44.8068 96.402Z" fill="#333333" stroke="#333333" stroke-width="0.5" stroke-linecap="round" stroke-linejoin="round"/>
<path d="M51.8938 96.402L52.7896 98.1966L54.8003 98.4866L53.347 99.883L53.6904 101.859L51.8938 100.93L50.0972 101.859L50.4406 99.883L48.9873 98.4866L50.993 98.1966L51.8938 96.402Z" fill="#333333" stroke="#333333" stroke-width="0.5" stroke-linecap="round" stroke-linejoin="round"/>
<path d="M58.9808 96.402L59.8816 98.1966L61.8873 98.4866L60.4341 99.883L60.7775 101.859L58.9808 100.93L57.1842 101.859L57.5276 99.883L56.0743 98.4866L58.085 98.1966L58.9808 96.402Z" fill="#333333" stroke="#333333" stroke-width="0.5" stroke-linecap="round" stroke-linejoin="round"/>
<path d="M66.0678 96.402L66.9686 98.1966L68.9743 98.4866L67.5211 99.883L67.8645 101.859L66.0678 100.93L64.2712 101.859L64.6146 99.883L63.1614 98.4866L65.172 98.1966L66.0678 96.402Z" fill="#333333" stroke="#333333" stroke-width="0.5" stroke-linecap="round" stroke-linejoin="round"/>
<path d="M223.592 100.445V119.083C223.592 119.083 180.967 133.241 172.348 137.432C163.729 141.623 154.462 150.334 154.462 150.334C151.368 153.534 139.989 156.18 140.543 153.22C140.725 152.146 140.748 151.051 140.613 149.971C140.504 148.971 140.297 147.984 139.994 147.025C138.996 148.899 136.79 151.012 136.79 151.012C136.79 153.215 135.462 156.858 135.462 156.858L134.963 163.914C137.229 167.996 135.233 169.645 134.374 169.536C133.516 169.426 132.543 167.931 132.543 167.931L131.26 168.105C131.26 168.105 129.713 171.3 128.495 171.414C127.278 171.529 126.599 169.76 126.599 169.76C126.599 169.76 125.955 170.971 124.413 170.258C124.014 170.005 123.703 169.634 123.525 169.197C122.562 167.268 122.028 163.451 121.873 162.061C121.648 160.296 121.429 152.133 121.429 151.142C121.429 150.15 126.953 141.673 128.61 138.788C130.267 135.902 131.48 132.394 133.686 131.183C135.892 129.972 138.327 130.959 145.504 130.52C152.68 130.082 158.868 128.646 162.117 127.43C165.366 126.214 166.155 124.565 170.906 123.444C175.657 122.322 223.262 100.56 223.592 100.445Z" fill="white"/>
<path opacity="0.4" d="M141.521 146.348C141.312 147.574 141.009 148.782 140.613 149.961C140.504 148.961 140.297 147.975 139.994 147.015C138.996 148.889 136.79 151.002 136.79 151.002C136.79 153.205 135.462 156.848 135.462 156.848L134.963 163.904C137.229 167.986 135.233 169.635 134.374 169.526C133.516 169.416 132.543 167.921 132.543 167.921L131.26 168.096C131.26 168.096 129.713 171.29 128.495 171.405C127.278 171.519 126.599 169.75 126.599 169.75C126.599 169.75 125.955 170.961 124.413 170.248C124.014 169.995 123.703 169.624 123.525 169.187C124.079 169.436 124.748 169.187 125.351 167.562C125.758 166.465 125.911 165.29 125.799 164.125C125.688 162.96 125.315 161.835 124.708 160.835C124.708 160.835 127.003 155.931 126.908 154.745C126.814 153.559 125.541 152.418 126.01 151.61C126.479 150.803 127.612 152.248 128.505 151.331C129.399 150.414 132.693 145.261 132.558 144.678C132.423 144.095 133.391 144.13 133.895 143.682C134.399 143.233 134.285 141.055 134.963 141.324C135.642 141.593 136.366 141.992 136.366 141.992C136.434 141.496 136.434 140.993 136.366 140.497C136.236 140.248 138.771 142.839 139.51 142.944C140.248 143.049 141.805 143.711 141.521 146.348Z" fill="#333333"/>
<path d="M223.592 100.445C223.262 100.56 175.682 122.322 170.916 123.429C166.15 124.535 165.371 126.185 162.127 127.415C158.883 128.646 152.695 130.062 145.514 130.505C138.332 130.949 135.907 129.952 133.696 131.168C131.485 132.384 130.272 135.907 128.62 138.773C126.968 141.638 121.439 150.135 121.439 151.127C121.439 152.119 121.658 160.281 121.883 162.046C122.107 163.81 122.881 169.521 124.423 170.243C125.965 170.966 126.609 169.745 126.609 169.745C126.609 169.745 127.293 171.509 128.505 171.4C129.718 171.29 131.27 168.091 131.27 168.091L132.553 167.916C132.553 167.916 133.521 169.411 134.384 169.521C135.248 169.63 137.239 167.981 134.973 163.899L135.472 156.843C135.472 156.843 136.795 153.2 136.795 150.997C136.795 150.997 139.006 148.899 139.999 147.01C139.999 147.01 141.102 150.245 140.548 153.205C139.994 156.165 151.373 153.519 154.467 150.319" stroke="#333333" stroke-width="0.5" stroke-linecap="round" stroke-linejoin="round"/>
<path d="M126.609 169.77C126.609 169.77 128.441 164.787 126.609 161.717C126.991 160.989 127.265 160.21 127.422 159.404C127.677 158.079 128.261 154.356 128.091 153.778C127.922 153.2 128.505 152.537 128.505 152.537C129.281 151.781 129.975 150.946 130.577 150.045C131.655 148.476 133.147 145.56 133.147 145.56C133.147 145.56 134.225 145.231 135.547 143.657C135.547 143.657 136.955 143.243 137.703 143.657" stroke="#333333" stroke-width="0.5" stroke-linecap="round" stroke-linejoin="round"/>
<path d="M140.353 143.995C140.353 143.995 141.097 146.378 140.353 148.207" stroke="#333333" stroke-width="0.5" stroke-linecap="round" stroke-linejoin="round"/>
<path d="M139.994 147.025C139.994 147.025 139.689 145.236 139.026 144.653" stroke="#333333" stroke-width="0.5" stroke-linecap="round" stroke-linejoin="round"/>
<path d="M133.147 145.565C133.147 145.565 134.749 147.628 138.137 147.025" stroke="#333333" stroke-width="0.5" stroke-linecap="round" stroke-linejoin="round"/>
<path d="M135.632 148.206C135.632 148.206 133.476 152.358 132.638 153.22L132.139 156.03" stroke="#333333" stroke-width="0.5" stroke-linecap="round" stroke-linejoin="round"/>
<path d="M128.92 153.22C129.335 153.412 129.787 153.512 130.245 153.512C130.702 153.512 131.155 153.412 131.57 153.22" stroke="#333333" stroke-width="0.5" stroke-linecap="round" stroke-linejoin="round"/>
<path d="M136.79 150.997C136.79 150.997 135.108 152.492 134.384 152.118" stroke="#333333" stroke-width="0.5" stroke-linecap="round" stroke-linejoin="round"/>
<path d="M134.384 141.364C135.056 141.959 135.472 142.789 135.547 143.681" stroke="#333333" stroke-width="0.5" stroke-linecap="round" stroke-linejoin="round"/>
<path d="M136.056 139.695C135.961 139.939 137.204 142.007 138.117 142.919" stroke="#333333" stroke-width="0.5" stroke-linecap="round" stroke-linejoin="round"/>
<path d="M126.02 152.173C126.385 152.411 126.798 152.565 127.23 152.623C127.661 152.682 128.1 152.644 128.515 152.512" stroke="#333333" stroke-width="0.5" stroke-linecap="round" stroke-linejoin="round"/>
<path d="M125.361 161.443C125.361 161.443 126.759 161.547 127.008 160.81" stroke="#333333" stroke-width="0.5" stroke-linecap="round" stroke-linejoin="round"/>
<path d="M129.098 176.014C131.26 175.805 132.798 173.418 132.533 170.681C132.269 167.944 130.302 165.894 128.14 166.103C125.978 166.311 124.44 168.698 124.705 171.435C124.969 174.172 126.936 176.222 129.098 176.014Z" stroke="#333333" stroke-width="0.5" stroke-linecap="round" stroke-linejoin="round"/>
<path d="M129.164 175.79C128.815 175.016 128.244 174.364 127.523 173.915C126.802 173.465 125.964 173.239 125.115 173.265C124.266 173.292 123.443 173.569 122.752 174.061C122.06 174.554 121.53 175.241 121.229 176.034L118.369 183.574C117.966 184.639 118.003 185.82 118.472 186.857C118.941 187.894 119.804 188.703 120.87 189.106C121.936 189.508 123.119 189.471 124.157 189.003C125.196 188.535 126.006 187.674 126.409 186.609L129.264 179.074C129.465 178.547 129.56 177.986 129.543 177.422C129.525 176.858 129.397 176.304 129.164 175.79ZM125.93 175.745C125.796 175.693 125.68 175.603 125.597 175.485C125.514 175.368 125.468 175.228 125.465 175.084C125.461 174.941 125.5 174.799 125.577 174.677C125.654 174.556 125.765 174.46 125.897 174.401C126.029 174.343 126.175 174.325 126.317 174.349C126.458 174.374 126.59 174.44 126.694 174.539C126.799 174.637 126.872 174.765 126.904 174.905C126.935 175.046 126.925 175.192 126.874 175.326C126.804 175.507 126.666 175.653 126.489 175.732C126.313 175.812 126.112 175.818 125.93 175.75V175.745Z" fill="#333333" stroke="#333333" stroke-width="0.5" stroke-linecap="round" stroke-linejoin="round"/>
<path d="M128.106 178.636L125.252 186.171C124.944 186.898 124.365 187.478 123.639 187.789C122.912 188.1 122.092 188.117 121.353 187.838C120.613 187.559 120.01 187.005 119.671 186.292C119.331 185.578 119.282 184.762 119.532 184.013L122.387 176.473C122.635 175.813 123.109 175.263 123.724 174.918C123.88 175.337 124.124 175.719 124.44 176.036C124.756 176.353 125.136 176.599 125.555 176.757C125.974 176.915 126.423 176.981 126.87 176.951C127.317 176.921 127.752 176.795 128.146 176.582C128.37 177.251 128.356 177.976 128.106 178.636Z" fill="white" stroke="#333333" stroke-width="0.5" stroke-linecap="round" stroke-linejoin="round"/>
<path d="M124.548 184.72C124.395 184.715 124.246 184.678 124.109 184.611L123.57 184.406C123.25 184.282 123.071 184.347 122.996 184.591L122.926 184.78L124.323 185.313L124.119 185.852L120.68 184.541L120.995 183.724C121.018 183.608 121.068 183.5 121.141 183.408C121.215 183.316 121.309 183.243 121.416 183.194C121.523 183.145 121.64 183.123 121.758 183.128C121.876 183.134 121.99 183.167 122.093 183.225L122.362 183.33C122.507 183.364 122.638 183.441 122.738 183.552C122.838 183.662 122.902 183.8 122.921 183.948C123.136 183.719 123.42 183.729 123.784 183.863L124.313 184.067C124.453 184.131 124.604 184.165 124.757 184.167L124.548 184.72ZM121.374 184.187L122.432 184.591L122.512 184.381C122.592 184.177 122.547 184.023 122.272 183.918L121.933 183.788C121.688 183.694 121.549 183.739 121.474 183.928L121.374 184.187Z" fill="#333333"/>
<path d="M123.091 182.577L123.37 181.835L123.869 182.024L123.585 182.767L124.583 183.151L124.937 182.219L125.436 182.403L124.872 183.898L121.434 182.587L121.993 181.092L122.492 181.282L122.137 182.214L123.091 182.577Z" fill="#333333"/>
<path d="M123.26 180.629L125.756 181.576L125.571 182.074L122.132 180.763L122.387 180.086L124.658 180.325L122.597 179.543L122.781 179.044L126.22 180.355L126.01 180.913L123.26 180.629Z" fill="#333333"/>
<path d="M122.866 178.82L123.5 177.151L123.999 177.335L123.784 177.903L126.734 179.024L126.524 179.563L123.575 178.441L123.36 179.004L122.866 178.82Z" fill="#333333"/>
<path d="M128.81 174.086L122.991 176.812C122.867 176.865 122.756 176.943 122.663 177.041C122.571 177.139 122.499 177.254 122.453 177.38C122.406 177.507 122.385 177.641 122.392 177.775C122.399 177.91 122.433 178.041 122.492 178.162L126.065 185.807C126.119 185.93 126.197 186.041 126.295 186.134C126.393 186.226 126.508 186.298 126.635 186.344C126.761 186.391 126.896 186.411 127.03 186.404C127.165 186.398 127.296 186.364 127.417 186.305L129.114 185.513L135.203 198.534C135.242 198.619 135.298 198.695 135.366 198.758C135.435 198.821 135.515 198.87 135.603 198.902C135.691 198.934 135.784 198.948 135.877 198.944C135.97 198.94 136.062 198.918 136.146 198.878L137.309 198.335C137.394 198.296 137.47 198.241 137.533 198.172C137.596 198.103 137.645 198.023 137.677 197.936C137.709 197.848 137.723 197.755 137.719 197.662C137.715 197.569 137.693 197.478 137.653 197.393L131.565 184.371L133.266 183.579C133.39 183.525 133.501 183.447 133.594 183.35C133.686 183.252 133.758 183.136 133.805 183.01C133.851 182.884 133.872 182.75 133.865 182.615C133.858 182.481 133.825 182.349 133.766 182.229L130.192 174.579C130.138 174.452 130.059 174.338 129.958 174.243C129.858 174.149 129.739 174.076 129.609 174.03C129.479 173.983 129.341 173.964 129.204 173.974C129.066 173.984 128.932 174.022 128.81 174.086ZM129.808 175.705C129.856 175.807 129.884 175.916 129.889 176.029C129.894 176.141 129.878 176.253 129.84 176.358C129.802 176.464 129.743 176.561 129.667 176.644C129.592 176.727 129.5 176.794 129.399 176.841L129.214 176.926C129.009 177.021 128.774 177.031 128.562 176.953C128.35 176.876 128.177 176.717 128.081 176.513L127.996 176.333C127.901 176.128 127.89 175.894 127.967 175.681C128.043 175.468 128.201 175.294 128.406 175.197L128.59 175.112C128.692 175.065 128.802 175.039 128.914 175.035C129.027 175.03 129.138 175.048 129.244 175.087C129.349 175.126 129.445 175.185 129.528 175.261C129.61 175.337 129.676 175.429 129.723 175.531L129.808 175.705Z" fill="#E2E2E2" stroke="#333333" stroke-width="0.5" stroke-linecap="round" stroke-linejoin="round"/>
<path d="M136.266 197.647L130.282 184.845L130.906 184.556" stroke="#333333" stroke-width="0.5" stroke-linecap="round" stroke-linejoin="round"/>
<path d="M132.528 170.692C132.792 173.428 131.25 175.815 129.089 176.019" stroke="#333333" stroke-width="0.5" stroke-linecap="round" stroke-linejoin="round"/>
<path d="M223.592 104.746V126.249L221.9 126.688C213.75 128.801 179.055 137.796 176.231 138.868C173.027 140.078 169.828 141.952 168.745 142.172C167.662 142.391 161.898 148.899 160.131 150.554C158.364 152.208 154.057 154.082 149.087 155.408C144.116 156.733 139.48 160.262 138.267 161.363C137.054 162.464 130.866 170.831 129.429 170.184C128.301 169.66 126.684 169.346 126.649 166.969C126.658 166.155 126.777 165.345 127.003 164.562C128.216 159.928 130.866 156.29 133.406 155.408C135.946 154.526 142.02 146.697 142.24 144.708L223.592 104.746Z" fill="white"/>
<path opacity="0.4" d="M221.885 126.688C213.735 128.801 179.041 137.796 176.216 138.867C173.012 140.078 169.813 141.952 168.73 142.171C167.647 142.391 161.883 148.899 160.116 150.554C158.349 152.208 154.042 154.082 149.072 155.408C144.101 156.733 139.465 160.261 138.252 161.363C137.039 162.464 130.851 170.831 129.414 170.184C128.286 169.66 126.669 169.346 126.634 166.969C127.348 168.1 128.485 169.416 128.945 168.918C128.945 168.918 127.602 168.818 128.945 165.564C130.287 162.31 130.941 160.735 132.588 161.916C134.235 163.097 136.156 163.496 136.82 161.129C137.484 158.761 137.723 159.848 140.713 157.874C143.702 155.901 146.861 152.592 147.749 152.672C148.638 152.751 155.55 152.099 157.621 150.997C159.692 149.896 165.606 143.253 165.76 141.344C165.915 139.436 173.291 136.68 175.133 135.598C176.974 134.517 184.176 133.131 186.941 132.543C189.705 131.955 182.793 134.477 180.722 135.922C178.651 137.367 198.19 130.964 203.325 129.977C208.331 129.015 221.376 126.778 221.885 126.688Z" fill="#333333"/>
<path d="M223.592 126.249C223.592 126.249 179.42 137.652 176.216 138.873C173.012 140.093 169.813 141.957 168.73 142.177C167.647 142.396 161.883 148.904 160.116 150.559C158.349 152.213 154.042 154.087 149.072 155.413C144.101 156.738 139.465 160.267 138.252 161.368C137.039 162.469 130.851 170.836 129.414 170.189C127.976 169.541 125.771 169.192 126.988 164.567C128.206 159.943 130.851 156.295 133.391 155.413C135.931 154.531 142.005 146.702 142.225 144.713" stroke="#333333" stroke-width="0.5" stroke-linecap="round" stroke-linejoin="round"/>
<path d="M145.602 209.036C142.907 211.724 134.751 215.557 131.831 217.615C129.764 219.073 121.154 220.397 118.648 221.126C116.871 221.647 114.501 223.67 112.13 223.001C109.759 222.331 90.0125 212.909 85.2757 210.559C80.5388 208.208 56.0507 211.898 41.4408 211.422C40.4874 211.392 39.574 211.362 38.7005 211.342C26.127 211.01 21.2953 211.422 21.2953 211.422L28.0088 185.635C28.0088 185.635 40.4675 186.23 59.4349 189.567C63.2634 190.242 66.7324 190.782 69.8371 191.224C82.1161 192.964 88.6549 193.083 88.6549 193.083C88.6549 193.083 94.974 187.629 100.899 192.315C106.824 197.001 108.386 200.943 108.386 200.943L116.682 205.654C116.682 205.654 120.041 205.064 122.113 205.654C124.184 206.244 127.104 204.281 128.601 203.497C131.242 202.173 134.092 201.309 137.027 200.943C137.027 200.943 142.133 198.984 145.887 199.951C145.887 199.951 148.652 198.776 151.023 198.776C151.637 198.77 152.244 198.895 152.805 199.143C153.442 199.419 153.988 199.87 154.377 200.442C154.552 201.121 154.684 201.81 154.772 202.505C154.981 203.889 151.622 203.026 145.602 209.036Z" fill="white"/>
<path opacity="0.4" d="M145.602 209.036C142.907 211.724 134.751 215.557 131.831 217.615C129.764 219.073 121.154 220.397 118.648 221.126C116.871 221.647 114.5 223.67 112.129 223.001C109.758 222.331 90.0122 212.909 85.2753 210.559C80.5384 208.208 56.0504 211.898 41.4405 211.422C40.4871 211.392 39.5737 211.362 38.7002 211.342C45.0193 210.931 51.6779 210.45 53.7294 210.117C57.9422 209.428 78.9562 208.352 81.8762 208.104C84.7961 207.856 107.832 219.763 110.467 220.938C113.103 222.113 114.959 222.247 116.671 220.938C118.384 219.629 125.197 218.458 125.197 218.458L121.274 218.81C121.274 218.81 126.49 216.936 129.874 216.103C133.258 215.27 136.622 212.23 138.858 211.526C141.095 210.822 144.978 206.413 146.93 205.506C148.881 204.598 146.93 201.905 146.93 201.905C146.93 201.905 149.291 201.816 150.219 203.269C150.219 203.269 153.673 203.383 154.382 200.457C154.557 201.136 154.688 201.825 154.776 202.52C154.981 203.889 151.622 203.026 145.602 209.036Z" fill="#333333"/>
<path opacity="0.4" d="M152.815 199.153C147.109 200.641 145.896 201.588 145.896 201.588C144.858 201.28 138.115 205.505 137.541 205.848C136.967 206.19 136.627 207.831 136.627 207.831C136.627 207.831 134.691 205.848 131.406 208.124C128.122 210.4 127.762 211.813 127.762 211.813L126.445 210.137C126.445 210.137 120.869 210.633 119.167 210.36C117.762 210.182 116.426 209.648 115.289 208.808C113.986 207.945 107.058 205.049 106.344 204.841C105.63 204.633 104.727 203.314 104.727 203.314C103.464 198.275 97.1699 192.523 93.7458 192.979C91.6822 193.261 89.7216 194.048 88.0406 195.27C88.0406 195.27 81.6316 194.616 78.3422 194.487C75.0528 194.358 55.0421 190.693 55.0421 190.693L69.8068 191.189C82.0858 192.93 88.6246 193.049 88.6246 193.049C88.6246 193.049 94.9437 187.594 100.869 192.28C106.793 196.966 108.356 200.909 108.356 200.909L116.652 205.62C116.652 205.62 120.011 205.029 122.082 205.62C124.154 206.21 127.074 204.246 128.571 203.462C131.212 202.138 134.062 201.275 136.997 200.909C136.997 200.909 142.103 198.95 145.856 199.917C145.856 199.917 148.622 198.741 150.993 198.741C151.623 198.743 152.245 198.884 152.815 199.153Z" fill="#333333"/>
<path opacity="0.4" d="M93.7807 206.978C93.7807 206.978 93.8157 208.367 93.0869 208.238C92.3582 208.109 94.4096 210.147 95.7224 209.82C97.0351 209.492 100.265 212.438 101.517 213.747C102.77 215.056 113.662 216.752 115.993 216.688C118.324 216.623 120.081 214.238 118.438 211.833C118.438 211.833 118.139 214.203 116.681 213.941C116.681 213.941 118.079 213.42 115.993 211.461C113.906 209.502 110.807 208.649 110.148 209.041C109.489 209.433 105.486 207.801 105.251 207.554C105.016 207.306 105.605 213.212 102.116 213.008C102.116 213.008 98.2081 210.142 97.4295 208.957C96.6508 207.772 93.7807 206.978 93.7807 206.978Z" fill="#333333"/>
<path d="M27.9885 185.645C27.9885 185.645 40.4671 186.23 59.4346 189.568C78.4021 192.905 88.6545 193.083 88.6545 193.083C88.6545 193.083 94.9737 187.629 100.899 192.315C106.823 197.001 108.386 200.943 108.386 200.943L116.681 205.654C116.681 205.654 120.041 205.064 122.112 205.654C124.184 206.244 127.104 204.281 128.601 203.497C131.242 202.173 134.092 201.309 137.027 200.943C137.027 200.943 142.133 198.985 145.886 199.952C145.886 199.952 148.652 198.776 151.023 198.776C151.677 198.753 152.327 198.894 152.913 199.185C153.499 199.476 154.003 199.908 154.377 200.443C154.552 201.121 154.683 201.81 154.771 202.505C154.971 203.879 151.612 203.001 145.592 209.026C142.897 211.714 134.741 215.547 131.821 217.605C129.754 219.063 121.144 220.387 118.638 221.116C116.861 221.637 114.49 223.66 112.119 222.991C109.748 222.321 90.0022 212.899 85.2653 210.549C80.5284 208.198 56.0404 211.888 41.4305 211.412C26.8205 210.936 21.285 211.412 21.285 211.412" stroke="#333333" stroke-width="0.5" stroke-linecap="round" stroke-linejoin="round"/>
<path d="M120.425 209.086H126.545C126.545 209.086 131.776 207.102 135.729 206.046C135.729 206.046 141.454 202.317 143.331 201.732C145.208 201.147 147.379 201.732 148.167 202.808C148.657 203.545 148.93 204.404 148.956 205.287C148.956 205.287 143.426 208.883 141.848 210.246C140.271 211.61 136.912 212.894 133.258 215.25C129.604 217.605 122.956 217.729 120.425 219.172" stroke="#333333" stroke-width="0.5" stroke-linecap="round" stroke-linejoin="round"/>
<path d="M145.896 199.961C145.896 199.961 139.492 202.312 136.572 205.501" stroke="#333333" stroke-width="0.5" stroke-linecap="round" stroke-linejoin="round"/>
<path d="M134.691 205.833C134.691 205.833 129.904 207.107 126.445 208.089" stroke="#333333" stroke-width="0.5" stroke-linecap="round" stroke-linejoin="round"/>
<path d="M123.191 205.749C123.191 205.749 122.751 206.339 123.191 207.564" stroke="#333333" stroke-width="0.5" stroke-linecap="round" stroke-linejoin="round"/>
<path d="M93.0769 206.656C93.0769 206.656 95.4429 207.712 96.7257 208.401C98.0085 209.091 99.5408 212.468 101.268 213.256C102.995 214.045 105.71 214.382 109.254 214.873C112.798 215.364 117.56 216.246 118.334 213.157C119.107 210.068 113.746 208.054 110.981 206.656C109.508 205.879 107.946 205.281 106.329 204.876C106.329 204.876 104.957 203.591 104.462 203.1C103.968 202.609 103.963 200.06 103.464 198.736" stroke="#333333" stroke-width="0.5" stroke-linecap="round" stroke-linejoin="round"/>
<path d="M105.75 199.961C105.75 199.961 105.62 202.168 104.752 203.348" stroke="#333333" stroke-width="0.5" stroke-linecap="round" stroke-linejoin="round"/>
<path d="M115.289 207.816C115.6 207.013 116.07 206.279 116.671 205.659" stroke="#333333" stroke-width="0.5" stroke-linecap="round" stroke-linejoin="round"/>
<path d="M92.3781 208.104C92.3781 208.104 95.0136 208.694 96.1766 208.104" stroke="#333333" stroke-width="0.5" stroke-linecap="round" stroke-linejoin="round"/>
<path d="M106.948 202.466C106.633 203.133 106.123 203.691 105.486 204.067" stroke="#333333" stroke-width="0.5" stroke-linecap="round" stroke-linejoin="round"/>
<path d="M104.727 208.104C104.727 208.104 105.121 210.752 102.85 212.126" stroke="#333333" stroke-width="0.5" stroke-linecap="round" stroke-linejoin="round"/>
</svg>
