<svg width="41" height="30" viewBox="0 0 41 30" fill="none" xmlns="http://www.w3.org/2000/svg">
<rect x="1.17188" y="1.15381" width="38.6571" height="27.6923" rx="5" fill="#F0C753"/>
<rect x="28.1143" y="30" width="14.0571" height="30" rx="3" transform="rotate(180 28.1143 30)" fill="#F7CB6B"/>
<rect x="27.5283" y="29.4229" width="12.8857" height="28.8462" rx="2.5" transform="rotate(180 27.5283 29.4229)" stroke="#4E87C7"/>
<path d="M3 20.7695C1.34315 20.7695 0 19.4264 0 17.7695L0 12.2311C0 10.5742 1.34315 9.23107 3 9.23107H14.0571C15.998 9.23107 17.5714 10.7809 17.5714 12.6926V17.308C17.5714 19.2197 15.998 20.7695 14.0571 20.7695H3Z" fill="#F7CB6B"/>
<path fill-rule="evenodd" clip-rule="evenodd" d="M0.585938 19.6155L0.585938 10.3847C0.585938 10.0661 0.848171 9.80777 1.17165 9.80777H14.0574C15.6748 9.80777 16.9859 11.0993 16.9859 12.6924V17.3078C16.9859 18.0728 16.6774 18.8065 16.1282 19.3475C15.579 19.8885 14.8341 20.1924 14.0574 20.1924H1.17165C0.848171 20.1924 0.585938 19.9341 0.585938 19.6155Z" stroke="#4E87C7"/>
<path d="M40 9.23096C40.5523 9.23096 41 9.67867 41 10.231V19.7694C41 20.3217 40.5523 20.7694 40 20.7694H26.9429C25.002 20.7694 23.4286 19.2196 23.4286 17.3079V12.6925C23.4286 10.7807 25.002 9.23096 26.9429 9.23096H40Z" fill="#F7CB6B"/>
<path fill-rule="evenodd" clip-rule="evenodd" d="M40.4141 10.3845V19.6153C40.4141 19.9339 40.1518 20.1922 39.8283 20.1922H26.9426C25.3252 20.1922 24.0141 18.9007 24.0141 17.3076V12.6922C24.0141 11.9272 24.3226 11.1935 24.8718 10.6525C25.421 10.1115 26.1659 9.80762 26.9426 9.80762H39.8283C40.1518 9.80762 40.4141 10.0659 40.4141 10.3845Z" stroke="#4E87C7"/>
</svg>
