<svg width="18" height="19" viewBox="0 0 18 19" fill="none" xmlns="http://www.w3.org/2000/svg">
<path d="M13.0387 16.2501C12.2028 16.2501 11.4937 15.9591 10.9117 15.3771C10.3298 14.7941 10.0388 14.0851 10.0388 13.2501C10.0388 12.4151 10.3298 11.7061 10.9117 11.1231C11.4937 10.5411 12.2028 10.2501 13.0387 10.2501C13.8737 10.2501 14.5825 10.5411 15.165 11.1231C15.7475 11.7051 16.0388 12.4141 16.0387 13.2501C16.0387 14.0856 15.7475 14.7946 15.165 15.3771C14.5825 15.9596 13.8737 16.2506 13.0387 16.2501ZM14.28 14.9016L14.6903 14.4921L13.3267 13.1286V11.0863H12.75V13.3716L14.28 14.9016ZM4.21125 15.5001C3.87625 15.5001 3.5905 15.3821 3.354 15.1461C3.118 14.9101 3 14.6243 3 14.2888V4.7113C3 4.3763 3.118 4.09055 3.354 3.85405C3.59 3.61805 3.87575 3.50005 4.21125 3.50005H7.689C7.759 3.20655 7.91475 2.96005 8.15625 2.76055C8.39775 2.56105 8.679 2.4613 9 2.4613C9.327 2.4613 9.6105 2.5613 9.8505 2.7613C10.0905 2.9603 10.2455 3.20655 10.3155 3.50005H13.788C14.124 3.50005 14.41 3.61805 14.646 3.85405C14.882 4.09005 15 4.3758 15 4.7113V9.2263C14.871 9.1598 14.749 9.10155 14.634 9.05155C14.519 9.00155 14.391 8.9568 14.25 8.9173V4.7113C14.25 4.5963 14.202 4.49055 14.106 4.39405C14.0095 4.29805 13.9038 4.25005 13.7887 4.25005H12V5.92255H6V4.25005H4.21125C4.09625 4.25005 3.9905 4.29805 3.894 4.39405C3.798 4.49055 3.75 4.5963 3.75 4.7113V14.2888C3.75 14.4233 3.79325 14.5338 3.87975 14.6203C3.96625 14.7068 4.07675 14.7501 4.21125 14.7501H8.8065C8.8465 14.8901 8.89375 15.0203 8.94825 15.1408C9.00325 15.2608 9.07325 15.3806 9.15825 15.5001H4.212H4.21125ZM9 4.42255C9.174 4.42255 9.3185 4.3653 9.4335 4.2508C9.5485 4.1358 9.606 3.9913 9.606 3.8173C9.606 3.6433 9.5485 3.4988 9.4335 3.3838C9.3185 3.2688 9.174 3.2113 9 3.2113C8.826 3.2113 8.6815 3.2688 8.5665 3.3838C8.4515 3.4988 8.394 3.6433 8.394 3.8173C8.394 3.9913 8.4515 4.1358 8.5665 4.2508C8.6815 4.3658 8.826 4.42255 9 4.42255Z" fill="white"/>
</svg>
