<svg width="24" height="24" viewBox="0 0 24 24" fill="none" xmlns="http://www.w3.org/2000/svg">
<path fill-rule="evenodd" clip-rule="evenodd" d="M12.3513 9.24859C12.1264 9.02356 12 8.71839 12 8.40019C12 8.082 12.1264 7.77683 12.3513 7.5518L15.9513 3.95179C16.062 3.83718 16.1945 3.74576 16.3409 3.68287C16.4873 3.61998 16.6447 3.58688 16.8041 3.58549C16.9634 3.58411 17.1214 3.61447 17.2689 3.67481C17.4164 3.73515 17.5503 3.82425 17.663 3.93692C17.7757 4.04959 17.8648 4.18357 17.9251 4.33105C17.9855 4.47853 18.0158 4.63654 18.0144 4.79588C18.0131 4.95521 17.98 5.11268 17.9171 5.25908C17.8542 5.40548 17.7628 5.5379 17.6481 5.64859L14.0481 9.24859C13.8231 9.47356 13.5179 9.59994 13.1997 9.59994C12.8815 9.59994 12.5764 9.47356 12.3513 9.24859Z" fill="#333333"/>
<path fill-rule="evenodd" clip-rule="evenodd" d="M21.2489 9.2484C21.0239 9.47336 20.7187 9.59974 20.4005 9.59974C20.0823 9.59974 19.7771 9.47336 19.5521 9.2484L15.9521 5.6484C15.7335 5.42208 15.6125 5.11895 15.6153 4.80432C15.618 4.48968 15.7442 4.18871 15.9667 3.96622C16.1892 3.74373 16.4902 3.61753 16.8048 3.61479C17.1194 3.61206 17.4226 3.73301 17.6489 3.9516L21.2489 7.5516C21.4739 7.77663 21.6002 8.0818 21.6002 8.4C21.6002 8.7182 21.4739 9.02337 21.2489 9.2484Z" fill="#333333"/>
<path fill-rule="evenodd" clip-rule="evenodd" d="M16.7999 6C17.1182 6 17.4234 6.12643 17.6484 6.35147C17.8735 6.57652 17.9999 6.88174 17.9999 7.2V16.8C17.9999 17.1183 17.8735 17.4235 17.6484 17.6485C17.4234 17.8736 17.1182 18 16.7999 18C16.4816 18 16.1764 17.8736 15.9514 17.6485C15.7263 17.4235 15.5999 17.1183 15.5999 16.8V7.2C15.5999 6.88174 15.7263 6.57652 15.9514 6.35147C16.1764 6.12643 16.4816 6 16.7999 6ZM11.6483 14.7516C11.8733 14.9766 11.9996 15.2818 11.9996 15.6C11.9996 15.9182 11.8733 16.2234 11.6483 16.4484L8.0483 20.0484C7.82198 20.267 7.51886 20.3879 7.20422 20.3852C6.88959 20.3825 6.58861 20.2563 6.36612 20.0338C6.14363 19.8113 6.01743 19.5103 6.01469 19.1957C6.01196 18.881 6.13291 18.5779 6.3515 18.3516L9.9515 14.7516C10.1765 14.5266 10.4817 14.4003 10.7999 14.4003C11.1181 14.4003 11.4233 14.5266 11.6483 14.7516Z" fill="#333333"/>
<path fill-rule="evenodd" clip-rule="evenodd" d="M2.75173 14.7517C2.97677 14.5268 3.28194 14.4004 3.60013 14.4004C3.91833 14.4004 4.2235 14.5268 4.44853 14.7517L8.04853 18.3517C8.16315 18.4624 8.25456 18.5948 8.31746 18.7412C8.38035 18.8877 8.41345 19.0451 8.41483 19.2045C8.41622 19.3638 8.38586 19.5218 8.32552 19.6693C8.26518 19.8168 8.17608 19.9507 8.06341 20.0634C7.95074 20.1761 7.81675 20.2652 7.66928 20.3255C7.5218 20.3859 7.36379 20.4162 7.20445 20.4148C7.04512 20.4135 6.88765 20.3803 6.74125 20.3175C6.59484 20.2546 6.46243 20.1631 6.35173 20.0485L2.75173 16.4485C2.52677 16.2235 2.40039 15.9183 2.40039 15.6001C2.40039 15.2819 2.52677 14.9768 2.75173 14.7517Z" fill="#333333"/>
<path fill-rule="evenodd" clip-rule="evenodd" d="M7.2 18C6.88174 18 6.57652 17.8736 6.35147 17.6485C6.12643 17.4235 6 17.1183 6 16.8V7.2C6 6.88174 6.12643 6.57652 6.35147 6.35147C6.57652 6.12643 6.88174 6 7.2 6C7.51826 6 7.82348 6.12643 8.04853 6.35147C8.27357 6.57652 8.4 6.88174 8.4 7.2V16.8C8.4 17.1183 8.27357 17.4235 8.04853 17.6485C7.82348 17.8736 7.51826 18 7.2 18Z" fill="#333333"/>
</svg>
