<svg width="18" height="15" viewBox="0 0 18 15" fill="none" xmlns="http://www.w3.org/2000/svg">
<path d="M16.2 5.79995V1.83328C16.2 1.53271 16.0735 1.24444 15.8485 1.0319C15.6235 0.819356 15.3182 0.699951 15 0.699951H1.79998C1.48172 0.699951 1.17649 0.819356 0.951447 1.0319C0.726404 1.24444 0.599976 1.53271 0.599976 1.83328V13.1666C0.599976 13.4672 0.726404 13.7555 0.951447 13.968C1.17649 14.1805 1.48172 14.3 1.79998 14.3H15C15.3182 14.3 15.6235 14.1805 15.8485 13.968C16.0735 13.7555 16.2 13.4672 16.2 13.1666V9.19995M17.316 5.23328H11.4C10.7635 5.23328 10.153 5.47209 9.70292 5.89718C9.25283 6.32226 8.99998 6.89879 8.99998 7.49995C8.99998 8.10111 9.25283 8.67764 9.70292 9.10273C10.153 9.52781 10.7635 9.76662 11.4 9.76662H17.316C17.3383 9.76662 17.3596 9.75826 17.3754 9.74338C17.3911 9.7285 17.4 9.70833 17.4 9.68728V5.31262C17.4 5.29158 17.3911 5.2714 17.3754 5.25652C17.3596 5.24164 17.3383 5.23328 17.316 5.23328Z" stroke="white"/>
</svg>
